<svg width="656" height="888" viewBox="0 0 656 888" fill="none" xmlns="http://www.w3.org/2000/svg">
<rect width="656" height="888" fill="url(#paint0_linear_97_2969)"/>
<path d="M201.133 353.439L284.817 402.665L212.905 455.867L146.322 387.382L201.133 353.439Z" fill="url(#paint1_linear_97_2969)"/>
<path d="M318.486 422.432L233.831 480.598L318.486 565.253L402.959 474.658L318.486 422.432Z" fill="url(#paint2_linear_97_2969)"/>
<path d="M502.369 345.866L371.249 268.995C371.249 268.995 399.29 261.76 473.747 213.192C548.203 164.624 511.086 121.517 511.086 121.517C511.086 121.517 551.699 148.486 558.984 181.305C566.948 217.178 557.349 247.368 539.034 268.995C502.307 312.362 502.369 345.866 502.369 345.866Z" fill="url(#paint3_linear_97_2969)"/>
<path d="M495.561 370.994C495.561 370.994 391.359 311.895 352.181 288.958C248.877 228.477 261.693 260.728 185.254 214.255C109.417 168.148 144.915 121.551 144.915 121.551C144.915 121.551 104.303 148.52 97.0171 181.339C89.0535 217.212 98.6421 247.41 116.968 269.028C154.956 313.842 196.731 332.803 196.731 332.803C196.731 332.803 375.356 433.643 415.249 454.986L455.405 412.99L495.561 370.994Z" fill="url(#paint4_linear_97_2969)"/>
<path d="M171.408 693.114V710.253H117.722V693.114H171.408ZM124.826 603.612V710.253H102.854V603.612H124.826ZM227.805 691.283V631.005H248.898V710.253H229.05L227.805 691.283ZM230.148 675.023L236.374 674.877C236.374 680.15 235.764 685.058 234.543 689.599C233.322 694.091 231.491 697.997 229.05 701.317C226.608 704.589 223.532 707.152 219.821 709.008C216.11 710.814 211.74 711.718 206.711 711.718C202.854 711.718 199.289 711.181 196.018 710.106C192.795 708.983 190.012 707.25 187.668 704.906C185.373 702.514 183.566 699.462 182.248 695.751C180.979 691.991 180.344 687.475 180.344 682.201V631.005H201.438V682.348C201.438 684.691 201.706 686.669 202.243 688.28C202.829 689.892 203.635 691.21 204.66 692.235C205.686 693.261 206.882 693.993 208.249 694.433C209.665 694.872 211.228 695.092 212.937 695.092C217.282 695.092 220.7 694.213 223.19 692.455C225.729 690.697 227.512 688.305 228.537 685.277C229.611 682.201 230.148 678.783 230.148 675.023ZM297.751 695.238C300.339 695.238 302.634 694.75 304.636 693.773C306.638 692.748 308.2 691.332 309.323 689.525C310.495 687.67 311.105 685.497 311.154 683.007H331.003C330.954 688.573 329.465 693.529 326.535 697.875C323.605 702.172 319.675 705.565 314.743 708.056C309.812 710.497 304.294 711.718 298.19 711.718C292.038 711.718 286.667 710.692 282.077 708.642C277.536 706.591 273.752 703.759 270.725 700.146C267.697 696.483 265.427 692.235 263.913 687.401C262.399 682.519 261.643 677.294 261.643 671.728V669.604C261.643 663.988 262.399 658.764 263.913 653.93C265.427 649.047 267.697 644.799 270.725 641.186C273.752 637.523 277.536 634.667 282.077 632.616C286.618 630.565 291.94 629.54 298.044 629.54C304.538 629.54 310.227 630.785 315.109 633.275C320.041 635.766 323.898 639.33 326.682 643.969C329.514 648.559 330.954 654.003 331.003 660.302H311.154C311.105 657.665 310.544 655.272 309.47 653.124C308.444 650.976 306.931 649.267 304.929 647.997C302.976 646.679 300.559 646.02 297.678 646.02C294.602 646.02 292.087 646.679 290.134 647.997C288.181 649.267 286.667 651.024 285.593 653.271C284.519 655.468 283.762 657.982 283.322 660.814C282.932 663.598 282.736 666.527 282.736 669.604V671.728C282.736 674.804 282.932 677.758 283.322 680.59C283.713 683.422 284.445 685.937 285.52 688.134C286.643 690.331 288.181 692.064 290.134 693.334C292.087 694.604 294.626 695.238 297.751 695.238ZM365.5 631.005V710.253H344.333V631.005H365.5ZM343.015 610.351C343.015 607.274 344.089 604.735 346.237 602.733C348.386 600.731 351.267 599.73 354.88 599.73C358.444 599.73 361.301 600.731 363.449 602.733C365.646 604.735 366.745 607.274 366.745 610.351C366.745 613.427 365.646 615.966 363.449 617.968C361.301 619.97 358.444 620.971 354.88 620.971C351.267 620.971 348.386 619.97 346.237 617.968C344.089 615.966 343.015 613.427 343.015 610.351ZM409.812 710.253H388.571V623.974C388.571 617.968 389.743 612.914 392.087 608.812C394.479 604.662 397.824 601.537 402.121 599.438C406.467 597.289 411.618 596.215 417.575 596.215C419.528 596.215 421.408 596.361 423.215 596.654C425.021 596.898 426.779 597.216 428.488 597.606L428.269 613.5C427.341 613.256 426.364 613.085 425.339 612.987C424.313 612.89 423.117 612.841 421.75 612.841C419.211 612.841 417.038 613.28 415.231 614.159C413.474 614.989 412.131 616.234 411.203 617.895C410.275 619.555 409.812 621.581 409.812 623.974V710.253ZM425.632 631.005V645.946H376.779V631.005H425.632ZM471.408 711.718C465.256 711.718 459.738 710.741 454.855 708.788C449.973 706.786 445.822 704.027 442.404 700.512C439.035 696.996 436.447 692.919 434.641 688.28C432.834 683.593 431.931 678.612 431.931 673.339V670.409C431.931 664.403 432.785 658.91 434.494 653.93C436.203 648.949 438.645 644.628 441.818 640.966C445.041 637.304 448.947 634.496 453.537 632.543C458.127 630.541 463.303 629.54 469.064 629.54C474.68 629.54 479.66 630.468 484.006 632.323C488.352 634.179 491.989 636.815 494.919 640.233C497.897 643.651 500.144 647.753 501.657 652.538C503.171 657.274 503.928 662.548 503.928 668.358V677.147H440.939V663.085H483.2V661.474C483.2 658.544 482.663 655.932 481.589 653.637C480.563 651.293 479.001 649.438 476.901 648.07C474.802 646.703 472.116 646.02 468.845 646.02C466.062 646.02 463.669 646.63 461.667 647.851C459.665 649.071 458.029 650.78 456.76 652.978C455.539 655.175 454.611 657.763 453.977 660.741C453.391 663.671 453.098 666.894 453.098 670.409V673.339C453.098 676.513 453.537 679.442 454.416 682.128C455.344 684.813 456.638 687.133 458.298 689.086C460.007 691.039 462.058 692.553 464.45 693.627C466.892 694.701 469.65 695.238 472.727 695.238C476.535 695.238 480.075 694.506 483.347 693.041C486.667 691.527 489.523 689.257 491.916 686.229L502.17 697.362C500.51 699.755 498.239 702.05 495.358 704.247C492.526 706.444 489.108 708.251 485.104 709.667C481.101 711.034 476.535 711.718 471.408 711.718ZM537.033 648.29V710.253H515.939V631.005H535.788L537.033 648.29ZM560.91 630.492L560.544 650.048C559.519 649.901 558.273 649.779 556.809 649.682C555.393 649.535 554.099 649.462 552.927 649.462C549.948 649.462 547.36 649.853 545.163 650.634C543.015 651.366 541.208 652.465 539.743 653.93C538.327 655.395 537.253 657.177 536.521 659.276C535.837 661.376 535.446 663.769 535.349 666.454L531.101 665.136C531.101 660.009 531.613 655.297 532.639 651C533.664 646.654 535.153 642.87 537.106 639.647C539.108 636.425 541.55 633.935 544.431 632.177C547.312 630.419 550.607 629.54 554.318 629.54C555.49 629.54 556.687 629.638 557.907 629.833C559.128 629.979 560.129 630.199 560.91 630.492Z" fill="white"/>
<path d="M54.0686 794.602C54.0686 793.895 53.9577 793.271 53.736 792.731C53.5281 792.176 53.1538 791.677 52.6133 791.234C52.0865 790.79 51.3519 790.367 50.4094 789.965C49.4807 789.563 48.3026 789.155 46.8749 788.739C45.378 788.295 44.0266 787.803 42.8207 787.263C41.6148 786.708 40.5822 786.078 39.7228 785.371C38.8635 784.664 38.2051 783.853 37.7477 782.938C37.2903 782.023 37.0616 780.977 37.0616 779.799C37.0616 778.62 37.3041 777.532 37.7893 776.534C38.2744 775.536 38.9674 774.67 39.8684 773.936C40.7832 773.187 41.8712 772.605 43.1325 772.189C44.3939 771.773 45.8007 771.565 47.3531 771.565C49.6263 771.565 51.5529 772.002 53.133 772.875C54.727 773.735 55.9398 774.864 56.7715 776.264C57.6031 777.65 58.0189 779.133 58.0189 780.713H54.027C54.027 779.577 53.7845 778.572 53.2994 777.699C52.8142 776.812 52.0796 776.119 51.0955 775.62C50.1114 775.107 48.8639 774.85 47.3531 774.85C45.9255 774.85 44.7473 775.065 43.8187 775.495C42.89 775.925 42.197 776.507 41.7395 777.241C41.296 777.976 41.0742 778.815 41.0742 779.757C41.0742 780.395 41.2059 780.977 41.4693 781.503C41.7465 782.016 42.1692 782.495 42.7375 782.938C43.3197 783.382 44.0543 783.791 44.9414 784.165C45.8423 784.539 46.9165 784.899 48.164 785.246C49.8827 785.731 51.3658 786.272 52.6133 786.868C53.8607 787.464 54.8864 788.136 55.6903 788.884C56.5081 789.619 57.111 790.457 57.4991 791.4C57.9011 792.329 58.1021 793.382 58.1021 794.56C58.1021 795.794 57.8526 796.91 57.3536 797.908C56.8546 798.906 56.1408 799.758 55.2121 800.465C54.2835 801.172 53.1677 801.719 51.8648 802.107C50.5757 802.482 49.1342 802.669 47.5402 802.669C46.1403 802.669 44.7612 802.475 43.4028 802.087C42.0583 801.699 40.8317 801.116 39.7228 800.34C38.6278 799.564 37.7477 798.608 37.0824 797.471C36.4309 796.321 36.1052 794.99 36.1052 793.479H40.0971C40.0971 794.519 40.298 795.413 40.7 796.161C41.102 796.896 41.6495 797.506 42.3425 797.991C43.0494 798.476 43.8464 798.836 44.7335 799.072C45.6344 799.294 46.57 799.405 47.5402 799.405C48.9402 799.405 50.1253 799.211 51.0955 798.822C52.0658 798.434 52.8004 797.88 53.2994 797.159C53.8122 796.438 54.0686 795.586 54.0686 794.602ZM62.6074 791.254V790.776C62.6074 789.155 62.8431 787.651 63.3143 786.265C63.7856 784.865 64.4648 783.652 65.3519 782.626C66.2389 781.587 67.3131 780.783 68.5745 780.214C69.8358 779.632 71.2496 779.341 72.8158 779.341C74.396 779.341 75.8167 779.632 77.078 780.214C78.3532 780.783 79.4343 781.587 80.3214 782.626C81.2223 783.652 81.9084 784.865 82.3797 786.265C82.851 787.651 83.0866 789.155 83.0866 790.776V791.254C83.0866 792.876 82.851 794.38 82.3797 795.766C81.9084 797.152 81.2223 798.365 80.3214 799.405C79.4343 800.43 78.3601 801.234 77.0988 801.816C75.8513 802.385 74.4375 802.669 72.8574 802.669C71.2773 802.669 69.8566 802.385 68.5953 801.816C67.3339 801.234 66.2528 800.43 65.3519 799.405C64.4648 798.365 63.7856 797.152 63.3143 795.766C62.8431 794.38 62.6074 792.876 62.6074 791.254ZM66.4538 790.776V791.254C66.4538 792.377 66.5855 793.438 66.8488 794.436C67.1122 795.42 67.5072 796.293 68.0339 797.055C68.5745 797.818 69.2467 798.42 70.0506 798.864C70.8546 799.294 71.7901 799.509 72.8574 799.509C73.9108 799.509 74.8326 799.294 75.6226 798.864C76.4265 798.42 77.0919 797.818 77.6186 797.055C78.1453 796.293 78.5403 795.42 78.8037 794.436C79.0809 793.438 79.2195 792.377 79.2195 791.254V790.776C79.2195 789.667 79.0809 788.621 78.8037 787.637C78.5403 786.639 78.1383 785.759 77.5978 784.996C77.0711 784.22 76.4058 783.61 75.6018 783.167C74.8118 782.723 73.8831 782.501 72.8158 782.501C71.7624 782.501 70.8338 782.723 70.0298 783.167C69.2398 783.61 68.5745 784.22 68.0339 784.996C67.5072 785.759 67.1122 786.639 66.8488 787.637C66.5855 788.621 66.4538 789.667 66.4538 790.776ZM93.0808 770.318V802.253H89.2137V770.318H93.0808ZM114.011 797.055V779.757H117.878V802.253H114.198L114.011 797.055ZM114.739 792.315L116.34 792.273C116.34 793.77 116.18 795.156 115.861 796.431C115.557 797.693 115.058 798.788 114.365 799.716C113.671 800.645 112.764 801.373 111.641 801.899C110.518 802.412 109.153 802.669 107.545 802.669C106.45 802.669 105.445 802.509 104.53 802.191C103.629 801.872 102.853 801.38 102.202 800.714C101.55 800.049 101.044 799.183 100.684 798.116C100.338 797.048 100.164 795.766 100.164 794.269V779.757H104.011V794.311C104.011 795.323 104.121 796.161 104.343 796.826C104.579 797.478 104.891 797.998 105.279 798.386C105.681 798.76 106.124 799.023 106.609 799.176C107.108 799.328 107.621 799.405 108.148 799.405C109.784 799.405 111.08 799.093 112.036 798.469C112.992 797.831 113.678 796.979 114.094 795.912C114.524 794.831 114.739 793.632 114.739 792.315ZM134.151 779.757V782.709H121.989V779.757H134.151ZM126.105 774.289H129.952V796.681C129.952 797.443 130.069 798.018 130.305 798.407C130.541 798.795 130.846 799.051 131.22 799.176C131.594 799.301 131.996 799.363 132.426 799.363C132.744 799.363 133.077 799.335 133.424 799.28C133.784 799.211 134.054 799.155 134.234 799.113L134.255 802.253C133.95 802.35 133.548 802.44 133.049 802.523C132.564 802.62 131.975 802.669 131.282 802.669C130.34 802.669 129.473 802.482 128.683 802.107C127.893 801.733 127.263 801.109 126.791 800.236C126.334 799.349 126.105 798.157 126.105 796.66V774.289ZM143.834 779.757V802.253H139.966V779.757H143.834ZM139.675 773.79C139.675 773.166 139.863 772.64 140.237 772.21C140.625 771.78 141.193 771.565 141.942 771.565C142.676 771.565 143.238 771.78 143.626 772.21C144.028 772.64 144.229 773.166 144.229 773.79C144.229 774.386 144.028 774.899 143.626 775.329C143.238 775.744 142.676 775.952 141.942 775.952C141.193 775.952 140.625 775.744 140.237 775.329C139.863 774.899 139.675 774.386 139.675 773.79ZM149.981 791.254V790.776C149.981 789.155 150.217 787.651 150.688 786.265C151.16 784.865 151.839 783.652 152.726 782.626C153.613 781.587 154.687 780.783 155.948 780.214C157.21 779.632 158.624 779.341 160.19 779.341C161.77 779.341 163.191 779.632 164.452 780.214C165.727 780.783 166.808 781.587 167.695 782.626C168.596 783.652 169.282 784.865 169.754 786.265C170.225 787.651 170.461 789.155 170.461 790.776V791.254C170.461 792.876 170.225 794.38 169.754 795.766C169.282 797.152 168.596 798.365 167.695 799.405C166.808 800.43 165.734 801.234 164.473 801.816C163.225 802.385 161.812 802.669 160.231 802.669C158.651 802.669 157.231 802.385 155.969 801.816C154.708 801.234 153.627 800.43 152.726 799.405C151.839 798.365 151.16 797.152 150.688 795.766C150.217 794.38 149.981 792.876 149.981 791.254ZM153.828 790.776V791.254C153.828 792.377 153.959 793.438 154.223 794.436C154.486 795.42 154.881 796.293 155.408 797.055C155.948 797.818 156.621 798.42 157.425 798.864C158.229 799.294 159.164 799.509 160.231 799.509C161.285 799.509 162.207 799.294 162.997 798.864C163.801 798.42 164.466 797.818 164.993 797.055C165.519 796.293 165.914 795.42 166.178 794.436C166.455 793.438 166.593 792.377 166.593 791.254V790.776C166.593 789.667 166.455 788.621 166.178 787.637C165.914 786.639 165.512 785.759 164.972 784.996C164.445 784.22 163.78 783.61 162.976 783.167C162.186 782.723 161.257 782.501 160.19 782.501C159.136 782.501 158.208 782.723 157.404 783.167C156.614 783.61 155.948 784.22 155.408 784.996C154.881 785.759 154.486 786.639 154.223 787.637C153.959 788.621 153.828 789.667 153.828 790.776ZM180.122 784.56V802.253H176.276V779.757H179.914L180.122 784.56ZM179.207 790.153L177.606 790.09C177.62 788.552 177.849 787.131 178.293 785.828C178.736 784.511 179.36 783.368 180.164 782.398C180.968 781.427 181.924 780.679 183.033 780.152C184.156 779.612 185.396 779.341 186.755 779.341C187.863 779.341 188.861 779.494 189.748 779.799C190.635 780.09 191.391 780.561 192.015 781.212C192.652 781.864 193.137 782.709 193.47 783.749C193.803 784.775 193.969 786.029 193.969 787.512V802.253H190.102V787.471C190.102 786.292 189.929 785.35 189.582 784.643C189.236 783.922 188.73 783.402 188.064 783.084C187.399 782.751 186.581 782.585 185.611 782.585C184.655 782.585 183.781 782.786 182.991 783.188C182.215 783.59 181.543 784.144 180.975 784.851C180.42 785.558 179.984 786.369 179.665 787.283C179.36 788.184 179.207 789.141 179.207 790.153ZM218.095 802.253H214.248V777.387C214.248 775.765 214.54 774.4 215.122 773.291C215.718 772.168 216.57 771.323 217.679 770.755C218.788 770.172 220.105 769.881 221.629 769.881C222.073 769.881 222.516 769.909 222.96 769.964C223.417 770.02 223.861 770.103 224.291 770.214L224.083 773.353C223.792 773.284 223.459 773.236 223.085 773.208C222.724 773.18 222.364 773.166 222.004 773.166C221.186 773.166 220.479 773.333 219.883 773.665C219.301 773.984 218.857 774.455 218.552 775.079C218.247 775.703 218.095 776.472 218.095 777.387V802.253ZM222.877 779.757V782.709H210.693V779.757H222.877ZM227.133 791.254V790.776C227.133 789.155 227.368 787.651 227.84 786.265C228.311 784.865 228.99 783.652 229.877 782.626C230.764 781.587 231.838 780.783 233.1 780.214C234.361 779.632 235.775 779.341 237.341 779.341C238.921 779.341 240.342 779.632 241.603 780.214C242.878 780.783 243.959 781.587 244.847 782.626C245.747 783.652 246.434 784.865 246.905 786.265C247.376 787.651 247.612 789.155 247.612 790.776V791.254C247.612 792.876 247.376 794.38 246.905 795.766C246.434 797.152 245.747 798.365 244.847 799.405C243.959 800.43 242.885 801.234 241.624 801.816C240.376 802.385 238.963 802.669 237.383 802.669C235.802 802.669 234.382 802.385 233.12 801.816C231.859 801.234 230.778 800.43 229.877 799.405C228.99 798.365 228.311 797.152 227.84 795.766C227.368 794.38 227.133 792.876 227.133 791.254ZM230.979 790.776V791.254C230.979 792.377 231.111 793.438 231.374 794.436C231.637 795.42 232.032 796.293 232.559 797.055C233.1 797.818 233.772 798.42 234.576 798.864C235.38 799.294 236.315 799.509 237.383 799.509C238.436 799.509 239.358 799.294 240.148 798.864C240.952 798.42 241.617 797.818 242.144 797.055C242.67 796.293 243.065 795.42 243.329 794.436C243.606 793.438 243.745 792.377 243.745 791.254V790.776C243.745 789.667 243.606 788.621 243.329 787.637C243.065 786.639 242.663 785.759 242.123 784.996C241.596 784.22 240.931 783.61 240.127 783.167C239.337 782.723 238.408 782.501 237.341 782.501C236.288 782.501 235.359 782.723 234.555 783.167C233.765 783.61 233.1 784.22 232.559 784.996C232.032 785.759 231.637 786.639 231.374 787.637C231.111 788.621 230.979 789.667 230.979 790.776ZM257.273 783.292V802.253H253.427V779.757H257.169L257.273 783.292ZM264.301 779.632L264.28 783.208C263.961 783.139 263.656 783.097 263.365 783.084C263.088 783.056 262.769 783.042 262.409 783.042C261.522 783.042 260.738 783.181 260.059 783.458C259.38 783.735 258.805 784.123 258.334 784.622C257.862 785.121 257.488 785.717 257.211 786.41C256.948 787.089 256.774 787.838 256.691 788.656L255.61 789.279C255.61 787.921 255.742 786.646 256.005 785.454C256.282 784.262 256.705 783.208 257.273 782.294C257.842 781.365 258.562 780.644 259.436 780.131C260.323 779.605 261.376 779.341 262.596 779.341C262.873 779.341 263.192 779.376 263.552 779.445C263.913 779.501 264.162 779.563 264.301 779.632ZM299.342 798.989V802.253H284.206V798.989H299.342ZM284.996 771.981V802.253H280.983V771.981H284.996ZM308.525 779.757V802.253H304.658V779.757H308.525ZM304.367 773.79C304.367 773.166 304.554 772.64 304.928 772.21C305.316 771.78 305.885 771.565 306.633 771.565C307.368 771.565 307.929 771.78 308.317 772.21C308.719 772.64 308.92 773.166 308.92 773.79C308.92 774.386 308.719 774.899 308.317 775.329C307.929 775.744 307.368 775.952 306.633 775.952C305.885 775.952 305.316 775.744 304.928 775.329C304.554 774.899 304.367 774.386 304.367 773.79ZM329.85 810.902V784.082L330.183 779.757H333.718V810.902H329.85ZM314.735 791.254V790.818C314.735 789.099 314.936 787.54 315.338 786.14C315.74 784.726 316.329 783.513 317.106 782.501C317.882 781.49 318.817 780.713 319.912 780.173C321.021 779.618 322.282 779.341 323.696 779.341C325.11 779.341 326.351 779.591 327.418 780.09C328.499 780.575 329.414 781.289 330.162 782.231C330.925 783.16 331.528 784.283 331.971 785.599C332.415 786.916 332.72 788.406 332.886 790.069V791.982C332.733 793.632 332.435 795.115 331.992 796.431C331.548 797.748 330.945 798.871 330.183 799.8C329.435 800.728 328.513 801.442 327.418 801.941C326.337 802.426 325.082 802.669 323.655 802.669C322.269 802.669 321.021 802.385 319.912 801.816C318.817 801.248 317.882 800.451 317.106 799.425C316.343 798.4 315.754 797.194 315.338 795.808C314.936 794.408 314.735 792.89 314.735 791.254ZM318.602 790.818V791.254C318.602 792.377 318.72 793.438 318.956 794.436C319.192 795.42 319.552 796.293 320.037 797.055C320.536 797.818 321.16 798.42 321.908 798.864C322.671 799.294 323.572 799.509 324.611 799.509C325.886 799.509 326.947 799.231 327.792 798.677C328.651 798.122 329.338 797.395 329.85 796.494C330.363 795.579 330.758 794.602 331.035 793.562V788.552C330.883 787.789 330.64 787.048 330.308 786.327C329.989 785.606 329.573 784.962 329.06 784.393C328.548 783.811 327.924 783.354 327.189 783.021C326.468 782.675 325.623 782.501 324.653 782.501C323.599 782.501 322.691 782.723 321.929 783.167C321.167 783.61 320.536 784.22 320.037 784.996C319.552 785.759 319.192 786.639 318.956 787.637C318.72 788.635 318.602 789.695 318.602 790.818ZM354.648 797.055V779.757H358.515V802.253H354.835L354.648 797.055ZM355.375 792.315L356.976 792.273C356.976 793.77 356.817 795.156 356.498 796.431C356.193 797.693 355.694 798.788 355.001 799.716C354.308 800.645 353.4 801.373 352.278 801.899C351.155 802.412 349.79 802.669 348.182 802.669C347.087 802.669 346.082 802.509 345.167 802.191C344.266 801.872 343.49 801.38 342.838 800.714C342.187 800.049 341.681 799.183 341.321 798.116C340.974 797.048 340.801 795.766 340.801 794.269V779.757H344.647V794.311C344.647 795.323 344.758 796.161 344.98 796.826C345.216 797.478 345.527 797.998 345.916 798.386C346.318 798.76 346.761 799.023 347.246 799.176C347.745 799.328 348.258 799.405 348.785 799.405C350.42 799.405 351.716 799.093 352.673 798.469C353.629 797.831 354.315 796.979 354.731 795.912C355.161 794.831 355.375 793.632 355.375 792.315ZM369.549 779.757V802.253H365.682V779.757H369.549ZM365.39 773.79C365.39 773.166 365.578 772.64 365.952 772.21C366.34 771.78 366.908 771.565 367.657 771.565C368.391 771.565 368.953 771.78 369.341 772.21C369.743 772.64 369.944 773.166 369.944 773.79C369.944 774.386 369.743 774.899 369.341 775.329C368.953 775.744 368.391 775.952 367.657 775.952C366.908 775.952 366.34 775.744 365.952 775.329C365.578 774.899 365.39 774.386 365.39 773.79ZM390.895 797.887V770.318H394.762V802.253H391.227L390.895 797.887ZM375.759 791.254V790.818C375.759 789.099 375.967 787.54 376.383 786.14C376.812 784.726 377.415 783.513 378.191 782.501C378.982 781.49 379.917 780.713 380.998 780.173C382.093 779.618 383.313 779.341 384.657 779.341C386.071 779.341 387.305 779.591 388.358 780.09C389.426 780.575 390.326 781.289 391.061 782.231C391.81 783.16 392.399 784.283 392.828 785.599C393.258 786.916 393.556 788.406 393.722 790.069V791.982C393.57 793.632 393.272 795.115 392.828 796.431C392.399 797.748 391.81 798.871 391.061 799.8C390.326 800.728 389.426 801.442 388.358 801.941C387.291 802.426 386.044 802.669 384.616 802.669C383.299 802.669 382.093 802.385 380.998 801.816C379.917 801.248 378.982 800.451 378.191 799.425C377.415 798.4 376.812 797.194 376.383 795.808C375.967 794.408 375.759 792.89 375.759 791.254ZM379.626 790.818V791.254C379.626 792.377 379.737 793.431 379.959 794.415C380.194 795.399 380.555 796.265 381.04 797.014C381.525 797.762 382.142 798.351 382.89 798.781C383.639 799.197 384.533 799.405 385.572 799.405C386.847 799.405 387.894 799.134 388.712 798.594C389.543 798.053 390.209 797.339 390.708 796.452C391.207 795.565 391.595 794.602 391.872 793.562V788.552C391.706 787.789 391.463 787.055 391.144 786.348C390.839 785.627 390.437 784.989 389.938 784.435C389.453 783.867 388.85 783.416 388.13 783.084C387.423 782.751 386.584 782.585 385.614 782.585C384.56 782.585 383.653 782.806 382.89 783.25C382.142 783.68 381.525 784.276 381.04 785.038C380.555 785.786 380.194 786.66 379.959 787.658C379.737 788.642 379.626 789.695 379.626 790.818ZM405.92 779.757V802.253H402.053V779.757H405.92ZM401.762 773.79C401.762 773.166 401.949 772.64 402.324 772.21C402.712 771.78 403.28 771.565 404.028 771.565C404.763 771.565 405.324 771.78 405.712 772.21C406.114 772.64 406.315 773.166 406.315 773.79C406.315 774.386 406.114 774.899 405.712 775.329C405.324 775.744 404.763 775.952 404.028 775.952C403.28 775.952 402.712 775.744 402.324 775.329C401.949 774.899 401.762 774.386 401.762 773.79ZM422.505 779.757V782.709H410.343V779.757H422.505ZM414.459 774.289H418.306V796.681C418.306 797.443 418.423 798.018 418.659 798.407C418.895 798.795 419.2 799.051 419.574 799.176C419.948 799.301 420.35 799.363 420.78 799.363C421.098 799.363 421.431 799.335 421.778 799.28C422.138 799.211 422.408 799.155 422.589 799.113L422.609 802.253C422.304 802.35 421.902 802.44 421.403 802.523C420.918 802.62 420.329 802.669 419.636 802.669C418.694 802.669 417.827 802.482 417.037 802.107C416.247 801.733 415.617 801.109 415.145 800.236C414.688 799.349 414.459 798.157 414.459 796.66V774.289ZM434.329 799.924L440.587 779.757H444.704L435.681 805.725C435.473 806.279 435.195 806.875 434.849 807.513C434.516 808.165 434.087 808.781 433.56 809.363C433.033 809.946 432.396 810.417 431.647 810.777C430.912 811.151 430.032 811.339 429.007 811.339C428.702 811.339 428.314 811.297 427.842 811.214C427.371 811.131 427.038 811.061 426.844 811.006L426.824 807.887C426.934 807.901 427.108 807.915 427.343 807.929C427.593 807.957 427.766 807.97 427.863 807.97C428.736 807.97 429.478 807.853 430.088 807.617C430.698 807.395 431.21 807.014 431.626 806.474C432.056 805.947 432.423 805.219 432.728 804.29L434.329 799.924ZM429.734 779.757L435.577 797.222L436.575 801.276L433.809 802.69L425.535 779.757H429.734ZM472.468 790.381H464.38V787.117H472.468C474.034 787.117 475.303 786.868 476.273 786.369C477.243 785.87 477.95 785.177 478.394 784.289C478.851 783.402 479.08 782.391 479.08 781.254C479.08 780.214 478.851 779.237 478.394 778.322C477.95 777.408 477.243 776.673 476.273 776.119C475.303 775.55 474.034 775.266 472.468 775.266H465.316V802.253H461.303V771.981H472.468C474.755 771.981 476.689 772.376 478.269 773.166C479.849 773.956 481.048 775.051 481.866 776.451C482.683 777.837 483.092 779.424 483.092 781.212C483.092 783.153 482.683 784.809 481.866 786.181C481.048 787.554 479.849 788.6 478.269 789.321C476.689 790.028 474.755 790.381 472.468 790.381ZM492.421 783.292V802.253H488.575V779.757H492.317L492.421 783.292ZM499.449 779.632L499.428 783.208C499.109 783.139 498.804 783.097 498.513 783.084C498.236 783.056 497.917 783.042 497.557 783.042C496.669 783.042 495.886 783.181 495.207 783.458C494.528 783.735 493.953 784.123 493.482 784.622C493.01 785.121 492.636 785.717 492.359 786.41C492.095 787.089 491.922 787.838 491.839 788.656L490.758 789.279C490.758 787.921 490.89 786.646 491.153 785.454C491.43 784.262 491.853 783.208 492.421 782.294C492.989 781.365 493.71 780.644 494.583 780.131C495.471 779.605 496.524 779.341 497.744 779.341C498.021 779.341 498.34 779.376 498.7 779.445C499.06 779.501 499.31 779.563 499.449 779.632ZM502.561 791.254V790.776C502.561 789.155 502.797 787.651 503.268 786.265C503.739 784.865 504.418 783.652 505.305 782.626C506.192 781.587 507.267 780.783 508.528 780.214C509.789 779.632 511.203 779.341 512.769 779.341C514.349 779.341 515.77 779.632 517.031 780.214C518.307 780.783 519.388 781.587 520.275 782.626C521.176 783.652 521.862 784.865 522.333 786.265C522.804 787.651 523.04 789.155 523.04 790.776V791.254C523.04 792.876 522.804 794.38 522.333 795.766C521.862 797.152 521.176 798.365 520.275 799.405C519.388 800.43 518.314 801.234 517.052 801.816C515.805 802.385 514.391 802.669 512.811 802.669C511.231 802.669 509.81 802.385 508.549 801.816C507.287 801.234 506.206 800.43 505.305 799.405C504.418 798.365 503.739 797.152 503.268 795.766C502.797 794.38 502.561 792.876 502.561 791.254ZM506.407 790.776V791.254C506.407 792.377 506.539 793.438 506.802 794.436C507.066 795.42 507.461 796.293 507.987 797.055C508.528 797.818 509.2 798.42 510.004 798.864C510.808 799.294 511.744 799.509 512.811 799.509C513.864 799.509 514.786 799.294 515.576 798.864C516.38 798.42 517.045 797.818 517.572 797.055C518.099 796.293 518.494 795.42 518.757 794.436C519.034 793.438 519.173 792.377 519.173 791.254V790.776C519.173 789.667 519.034 788.621 518.757 787.637C518.494 786.639 518.092 785.759 517.551 784.996C517.025 784.22 516.359 783.61 515.555 783.167C514.765 782.723 513.837 782.501 512.769 782.501C511.716 782.501 510.787 782.723 509.983 783.167C509.193 783.61 508.528 784.22 507.987 784.996C507.461 785.759 507.066 786.639 506.802 787.637C506.539 788.621 506.407 789.667 506.407 790.776ZM535.363 798.781L541.517 779.757H545.447L537.359 802.253H534.781L535.363 798.781ZM530.227 779.757L536.569 798.885L537.005 802.253H534.427L526.277 779.757H530.227ZM554.318 779.757V802.253H550.451V779.757H554.318ZM550.16 773.79C550.16 773.166 550.347 772.64 550.721 772.21C551.109 771.78 551.678 771.565 552.426 771.565C553.161 771.565 553.722 771.78 554.11 772.21C554.512 772.64 554.713 773.166 554.713 773.79C554.713 774.386 554.512 774.899 554.11 775.329C553.722 775.744 553.161 775.952 552.426 775.952C551.678 775.952 551.109 775.744 550.721 775.329C550.347 774.899 550.16 774.386 550.16 773.79ZM575.664 797.887V770.318H579.531V802.253H575.997L575.664 797.887ZM560.528 791.254V790.818C560.528 789.099 560.736 787.54 561.152 786.14C561.582 784.726 562.185 783.513 562.961 782.501C563.751 781.49 564.686 780.713 565.768 780.173C566.863 779.618 568.082 779.341 569.427 779.341C570.841 779.341 572.074 779.591 573.128 780.09C574.195 780.575 575.096 781.289 575.83 782.231C576.579 783.16 577.168 784.283 577.598 785.599C578.027 786.916 578.325 788.406 578.492 790.069V791.982C578.339 793.632 578.041 795.115 577.598 796.431C577.168 797.748 576.579 798.871 575.83 799.8C575.096 800.728 574.195 801.442 573.128 801.941C572.06 802.426 570.813 802.669 569.385 802.669C568.068 802.669 566.863 802.385 565.768 801.816C564.686 801.248 563.751 800.451 562.961 799.425C562.185 798.4 561.582 797.194 561.152 795.808C560.736 794.408 560.528 792.89 560.528 791.254ZM564.395 790.818V791.254C564.395 792.377 564.506 793.431 564.728 794.415C564.964 795.399 565.324 796.265 565.809 797.014C566.294 797.762 566.911 798.351 567.66 798.781C568.408 799.197 569.302 799.405 570.342 799.405C571.617 799.405 572.663 799.134 573.481 798.594C574.313 798.053 574.978 797.339 575.477 796.452C575.976 795.565 576.364 794.602 576.641 793.562V788.552C576.475 787.789 576.232 787.055 575.914 786.348C575.609 785.627 575.207 784.989 574.708 784.435C574.223 783.867 573.62 783.416 572.899 783.084C572.192 782.751 571.353 782.585 570.383 782.585C569.33 782.585 568.422 782.806 567.66 783.25C566.911 783.68 566.294 784.276 565.809 785.038C565.324 785.786 564.964 786.66 564.728 787.658C564.506 788.642 564.395 789.695 564.395 790.818ZM595.846 802.669C594.28 802.669 592.859 802.405 591.584 801.879C590.322 801.338 589.234 800.583 588.32 799.612C587.419 798.642 586.726 797.492 586.24 796.161C585.755 794.831 585.513 793.375 585.513 791.795V790.922C585.513 789.092 585.783 787.464 586.324 786.036C586.864 784.594 587.599 783.375 588.527 782.377C589.456 781.379 590.51 780.623 591.688 780.11C592.866 779.598 594.086 779.341 595.347 779.341C596.955 779.341 598.341 779.618 599.505 780.173C600.683 780.727 601.647 781.503 602.395 782.501C603.144 783.486 603.698 784.65 604.058 785.994C604.419 787.325 604.599 788.78 604.599 790.36V792.086H587.8V788.947H600.753V788.656C600.697 787.658 600.489 786.687 600.129 785.745C599.782 784.802 599.228 784.026 598.466 783.416C597.703 782.806 596.664 782.501 595.347 782.501C594.474 782.501 593.67 782.689 592.935 783.063C592.201 783.423 591.57 783.964 591.043 784.685C590.516 785.405 590.108 786.285 589.817 787.325C589.525 788.365 589.38 789.563 589.38 790.922V791.795C589.38 792.862 589.525 793.867 589.817 794.81C590.121 795.738 590.558 796.556 591.126 797.263C591.709 797.97 592.408 798.524 593.226 798.926C594.058 799.328 595 799.529 596.054 799.529C597.412 799.529 598.563 799.252 599.505 798.698C600.448 798.143 601.272 797.402 601.979 796.473L604.308 798.323C603.823 799.058 603.206 799.758 602.457 800.423C601.709 801.089 600.787 801.629 599.692 802.045C598.611 802.461 597.329 802.669 595.846 802.669ZM613.928 783.292V802.253H610.081V779.757H613.824L613.928 783.292ZM620.955 779.632L620.934 783.208C620.616 783.139 620.311 783.097 620.02 783.084C619.742 783.056 619.424 783.042 619.063 783.042C618.176 783.042 617.393 783.181 616.714 783.458C616.035 783.735 615.459 784.123 614.988 784.622C614.517 785.121 614.143 785.717 613.865 786.41C613.602 787.089 613.429 787.838 613.346 788.656L612.264 789.279C612.264 787.921 612.396 786.646 612.66 785.454C612.937 784.262 613.359 783.208 613.928 782.294C614.496 781.365 615.217 780.644 616.09 780.131C616.977 779.605 618.031 779.341 619.25 779.341C619.527 779.341 619.846 779.376 620.207 779.445C620.567 779.501 620.817 779.563 620.955 779.632Z" fill="white"/>
<defs>
<linearGradient id="paint0_linear_97_2969" x1="328" y1="0" x2="328" y2="1148.77" gradientUnits="userSpaceOnUse">
<stop/>
<stop offset="1" stop-opacity="0"/>
</linearGradient>
<linearGradient id="paint1_linear_97_2969" x1="116.794" y1="322.056" x2="387.555" y2="633.365" gradientUnits="userSpaceOnUse">
<stop offset="0.265625" stop-color="#E3311F"/>
<stop offset="1"/>
</linearGradient>
<linearGradient id="paint2_linear_97_2969" x1="116.794" y1="322.056" x2="387.555" y2="633.365" gradientUnits="userSpaceOnUse">
<stop offset="0.265625" stop-color="#E3311F"/>
<stop offset="1"/>
</linearGradient>
<linearGradient id="paint3_linear_97_2969" x1="583.731" y1="88.277" x2="300.755" y2="316.359" gradientUnits="userSpaceOnUse">
<stop offset="0.265625" stop-color="#E3311F"/>
<stop offset="1"/>
</linearGradient>
<linearGradient id="paint4_linear_97_2969" x1="48.0143" y1="72.1482" x2="474.621" y2="559.45" gradientUnits="userSpaceOnUse">
<stop offset="0.265625" stop-color="#E3311F"/>
<stop offset="1"/>
</linearGradient>
</defs>
</svg>
