<svg width="118" height="32" viewBox="0 0 118 32" fill="none" xmlns="http://www.w3.org/2000/svg">
<path d="M8.23687 16.7251L14.2717 20.275L9.08577 24.1117L4.28418 19.1729L8.23687 16.7251Z" fill="url(#paint0_linear_97_2949)"/>
<path d="M16.6997 21.7005L10.5948 25.8952L16.6997 32.0001L22.7916 25.4668L16.6997 21.7005Z" fill="url(#paint1_linear_97_2949)"/>
<path d="M29.9608 16.179L20.5051 10.6354C20.5051 10.6354 22.5273 10.1137 27.8967 6.61117C33.2661 3.10868 30.5894 0 30.5894 0C30.5894 0 33.5182 1.94485 34.0436 4.31163C34.6179 6.89861 33.9257 9.07573 32.6049 10.6354C29.9563 13.7628 29.9608 16.179 29.9608 16.179Z" fill="url(#paint2_linear_97_2949)"/>
<path d="M29.47 17.9911C29.47 17.9911 21.9555 13.7292 19.1301 12.075C11.6804 7.71346 12.6046 10.0392 7.09216 6.68781C1.62316 3.36282 4.18311 0.00244141 4.18311 0.00244141C4.18311 0.00244141 1.25437 1.94729 0.728953 4.31407C0.154656 6.90105 0.84614 9.07881 2.1677 10.6378C4.90725 13.8695 7.91986 15.2369 7.91986 15.2369C7.91986 15.2369 20.8014 22.509 23.6782 24.0482L26.5741 21.0196L29.47 17.9911Z" fill="url(#paint3_linear_97_2949)"/>
<path d="M45.6071 22.6359H51.1271V25.2999H42.2471V8.54789H45.6071V22.6359Z" fill="#23262F"/>
<path d="M65.3347 12.0039V25.2999H61.9507V23.6199C61.5187 24.1959 60.9507 24.6519 60.2467 24.9879C59.5587 25.3079 58.8067 25.4679 57.9907 25.4679C56.9507 25.4679 56.0307 25.2519 55.2307 24.8199C54.4307 24.3719 53.7987 23.7239 53.3347 22.8759C52.8867 22.0119 52.6627 20.9879 52.6627 19.8039V12.0039H56.0227V19.3239C56.0227 20.3799 56.2867 21.1959 56.8147 21.7719C57.3427 22.3319 58.0627 22.6119 58.9747 22.6119C59.9027 22.6119 60.6307 22.3319 61.1587 21.7719C61.6867 21.1959 61.9507 20.3799 61.9507 19.3239V12.0039H65.3347Z" fill="#23262F"/>
<path d="M67.3059 18.6519C67.3059 17.2759 67.5859 16.0759 68.1459 15.0519C68.7059 14.0119 69.4819 13.2119 70.4739 12.6519C71.4659 12.0759 72.6019 11.7879 73.8819 11.7879C75.5299 11.7879 76.8899 12.2039 77.9619 13.0359C79.0499 13.8519 79.7779 15.0039 80.1459 16.4919H76.5219C76.3299 15.9159 76.0019 15.4679 75.5379 15.1479C75.0899 14.8119 74.5299 14.6439 73.8579 14.6439C72.8979 14.6439 72.1379 14.9959 71.5779 15.6999C71.0179 16.3879 70.7379 17.3719 70.7379 18.6519C70.7379 19.9159 71.0179 20.8999 71.5779 21.6039C72.1379 22.2919 72.8979 22.6359 73.8579 22.6359C75.2179 22.6359 76.1059 22.0279 76.5219 20.8119H80.1459C79.7779 22.2519 79.0499 23.3959 77.9619 24.2439C76.8739 25.0919 75.5139 25.5159 73.8819 25.5159C72.6019 25.5159 71.4659 25.2359 70.4739 24.6759C69.4819 24.0999 68.7059 23.2999 68.1459 22.2759C67.5859 21.2359 67.3059 20.0279 67.3059 18.6519Z" fill="#23262F"/>
<path d="M83.8314 10.4199C83.2394 10.4199 82.7434 10.2359 82.3434 9.86789C81.9594 9.48389 81.7674 9.01189 81.7674 8.45189C81.7674 7.89189 81.9594 7.42789 82.3434 7.05989C82.7434 6.67589 83.2394 6.48389 83.8314 6.48389C84.4234 6.48389 84.9114 6.67589 85.2954 7.05989C85.6954 7.42789 85.8954 7.89189 85.8954 8.45189C85.8954 9.01189 85.6954 9.48389 85.2954 9.86789C84.9114 10.2359 84.4234 10.4199 83.8314 10.4199ZM85.4874 12.0039V25.2999H82.1274V12.0039H85.4874Z" fill="#23262F"/>
<path d="M94.4231 14.7639H92.0951V25.2999H88.6871V14.7639H87.1751V12.0039H88.6871V11.3319C88.6871 9.69989 89.1511 8.49989 90.0791 7.73189C91.0071 6.96389 92.4071 6.60389 94.2791 6.65189V9.48389C93.4631 9.46789 92.8951 9.60389 92.5751 9.89189C92.2551 10.1799 92.0951 10.6999 92.0951 11.4519V12.0039H94.4231V14.7639Z" fill="#23262F"/>
<path d="M108.481 18.3639C108.481 18.8439 108.449 19.2759 108.385 19.6599H98.6645C98.7445 20.6199 99.0805 21.3719 99.6725 21.9159C100.265 22.4599 100.993 22.7319 101.857 22.7319C103.105 22.7319 103.993 22.1959 104.521 21.1239H108.145C107.761 22.4039 107.025 23.4599 105.937 24.2919C104.849 25.1079 103.513 25.5159 101.929 25.5159C100.649 25.5159 99.4965 25.2359 98.4725 24.6759C97.4645 24.0999 96.6725 23.2919 96.0965 22.2519C95.5365 21.2119 95.2565 20.0119 95.2565 18.6519C95.2565 17.2759 95.5365 16.0679 96.0965 15.0279C96.6565 13.9879 97.4405 13.1879 98.4485 12.6279C99.4565 12.0679 100.617 11.7879 101.929 11.7879C103.193 11.7879 104.321 12.0599 105.313 12.6039C106.321 13.1479 107.097 13.9239 107.641 14.9319C108.201 15.9239 108.481 17.0679 108.481 18.3639ZM105.001 17.4039C104.985 16.5399 104.673 15.8519 104.065 15.3399C103.457 14.8119 102.713 14.5479 101.833 14.5479C101.001 14.5479 100.297 14.8039 99.7205 15.3159C99.1605 15.8119 98.8165 16.5079 98.6885 17.4039H105.001Z" fill="#23262F"/>
<path d="M113.813 14.0679C114.245 13.3639 114.805 12.8119 115.493 12.4119C116.197 12.0119 116.997 11.8119 117.893 11.8119V15.3399H117.005C115.949 15.3399 115.149 15.5879 114.605 16.0839C114.077 16.5799 113.813 17.4439 113.813 18.6759V25.2999H110.453V12.0039H113.813V14.0679Z" fill="#23262F"/>
<defs>
<linearGradient id="paint0_linear_97_2949" x1="2.15478" y1="14.4619" x2="20.8744" y2="47.9217" gradientUnits="userSpaceOnUse">
<stop offset="0.265625" stop-color="#E3311F"/>
<stop offset="1"/>
</linearGradient>
<linearGradient id="paint1_linear_97_2949" x1="2.15478" y1="14.4619" x2="20.8744" y2="47.9217" gradientUnits="userSpaceOnUse">
<stop offset="0.265625" stop-color="#E3311F"/>
<stop offset="1"/>
</linearGradient>
<linearGradient id="paint2_linear_97_2949" x1="35.8282" y1="-2.39711" x2="13.1413" y2="26.0301" gradientUnits="userSpaceOnUse">
<stop offset="0.265625" stop-color="#E3311F"/>
<stop offset="1"/>
</linearGradient>
<linearGradient id="paint3_linear_97_2949" x1="-2.80488" y1="-3.56023" x2="26.7639" y2="48.9474" gradientUnits="userSpaceOnUse">
<stop offset="0.265625" stop-color="#E3311F"/>
<stop offset="1"/>
</linearGradient>
</defs>
</svg>
