<svg width="121" height="32" viewBox="0 0 121 32" fill="none" xmlns="http://www.w3.org/2000/svg">
<path d="M8.05914 16.7251L14.094 20.275L8.90803 24.1117L4.10645 19.1729L8.05914 16.7251Z" fill="url(#paint0_linear_97_2949)"/>
<path d="M16.522 21.7005L10.4171 25.8952L16.522 32.0001L22.6138 25.4668L16.522 21.7005Z" fill="url(#paint1_linear_97_2949)"/>
<path d="M29.783 16.179L20.3273 10.6354C20.3273 10.6354 22.3495 10.1137 27.719 6.61117C33.0884 3.10868 30.4117 0 30.4117 0C30.4117 0 33.3405 1.94485 33.8659 4.31163C34.4402 6.89861 33.7479 9.07573 32.4271 10.6354C29.7786 13.7628 29.783 16.179 29.783 16.179Z" fill="url(#paint2_linear_97_2949)"/>
<path d="M29.2922 17.9911C29.2922 17.9911 21.7777 13.7292 18.9524 12.075C11.5026 7.71346 12.4268 10.0392 6.91443 6.68781C1.44543 3.36282 4.00538 0.00244141 4.00538 0.00244141C4.00538 0.00244141 1.07663 1.94729 0.551218 4.31407C-0.0230781 6.90105 0.668406 9.07881 1.98997 10.6378C4.72951 13.8695 7.74213 15.2369 7.74213 15.2369C7.74213 15.2369 20.6237 22.509 23.5005 24.0482L26.3964 21.0196L29.2922 17.9911Z" fill="url(#paint3_linear_97_2949)"/>
<path d="M47.0853 21.336H52.6053V24H43.7253V7.248H47.0853V21.336ZM66.813 10.704V24H63.429V22.32C62.997 22.896 62.429 23.352 61.725 23.688C61.037 24.008 60.285 24.168 59.469 24.168C58.429 24.168 57.509 23.952 56.709 23.52C55.909 23.072 55.277 22.424 54.813 21.576C54.365 20.712 54.141 19.688 54.141 18.504V10.704H57.501V18.024C57.501 19.08 57.765 19.896 58.293 20.472C58.821 21.032 59.541 21.312 60.453 21.312C61.381 21.312 62.109 21.032 62.637 20.472C63.165 19.896 63.429 19.08 63.429 18.024V10.704H66.813ZM68.7841 17.352C68.7841 15.976 69.0641 14.776 69.6241 13.752C70.1841 12.712 70.9601 11.912 71.9521 11.352C72.9441 10.776 74.0801 10.488 75.3601 10.488C77.0081 10.488 78.3681 10.904 79.4402 11.736C80.5281 12.552 81.2561 13.704 81.6241 15.192H78.0001C77.8082 14.616 77.4801 14.168 77.0161 13.848C76.5681 13.512 76.0081 13.344 75.3361 13.344C74.3761 13.344 73.6161 13.696 73.0561 14.4C72.4961 15.088 72.2161 16.072 72.2161 17.352C72.2161 18.616 72.4961 19.6 73.0561 20.304C73.6161 20.992 74.3761 21.336 75.3361 21.336C76.6962 21.336 77.5842 20.728 78.0001 19.512H81.6241C81.2561 20.952 80.5281 22.096 79.4402 22.944C78.3521 23.792 76.9921 24.216 75.3601 24.216C74.0801 24.216 72.9441 23.936 71.9521 23.376C70.9601 22.8 70.1841 22 69.6241 20.976C69.0641 19.936 68.7841 18.728 68.7841 17.352ZM85.3096 9.12C84.7176 9.12 84.2216 8.936 83.8216 8.568C83.4376 8.184 83.2456 7.712 83.2456 7.152C83.2456 6.592 83.4376 6.128 83.8216 5.76C84.2216 5.376 84.7176 5.184 85.3096 5.184C85.9016 5.184 86.3896 5.376 86.7736 5.76C87.1737 6.128 87.3737 6.592 87.3737 7.152C87.3737 7.712 87.1737 8.184 86.7736 8.568C86.3896 8.936 85.9016 9.12 85.3096 9.12ZM86.9656 10.704V24H83.6056V10.704H86.9656ZM95.9013 13.464H93.5733V24H90.1653V13.464H88.6533V10.704H90.1653V10.032C90.1653 8.4 90.6293 7.2 91.5573 6.432C92.4853 5.664 93.8853 5.304 95.7573 5.352V8.184C94.9413 8.168 94.3733 8.304 94.0533 8.592C93.7333 8.88 93.5733 9.4 93.5733 10.152V10.704H95.9013V13.464ZM109.959 17.064C109.959 17.544 109.927 17.976 109.863 18.36H100.143C100.223 19.32 100.559 20.072 101.151 20.616C101.743 21.16 102.471 21.432 103.335 21.432C104.583 21.432 105.471 20.896 105.999 19.824H109.623C109.239 21.104 108.503 22.16 107.415 22.992C106.327 23.808 104.991 24.216 103.407 24.216C102.127 24.216 100.975 23.936 99.9508 23.376C98.9428 22.8 98.1508 21.992 97.5748 20.952C97.0148 19.912 96.7348 18.712 96.7348 17.352C96.7348 15.976 97.0148 14.768 97.5748 13.728C98.1348 12.688 98.9188 11.888 99.9268 11.328C100.935 10.768 102.095 10.488 103.407 10.488C104.671 10.488 105.799 10.76 106.791 11.304C107.799 11.848 108.575 12.624 109.119 13.632C109.679 14.624 109.959 15.768 109.959 17.064ZM106.479 16.104C106.463 15.24 106.151 14.552 105.543 14.04C104.935 13.512 104.191 13.248 103.311 13.248C102.479 13.248 101.775 13.504 101.199 14.016C100.639 14.512 100.295 15.208 100.167 16.104H106.479ZM115.291 12.768C115.723 12.064 116.283 11.512 116.971 11.112C117.675 10.712 118.475 10.512 119.371 10.512V14.04H118.483C117.427 14.04 116.627 14.288 116.083 14.784C115.555 15.28 115.291 16.144 115.291 17.376V24H111.931V10.704H115.291V12.768Z" fill="#23262F"/>
<defs>
<linearGradient id="paint0_linear_97_2949" x1="1.97704" y1="14.4619" x2="20.6967" y2="47.9217" gradientUnits="userSpaceOnUse">
<stop offset="0.265625" stop-color="#E3311F"/>
<stop offset="1"/>
</linearGradient>
<linearGradient id="paint1_linear_97_2949" x1="1.97704" y1="14.4619" x2="20.6967" y2="47.9217" gradientUnits="userSpaceOnUse">
<stop offset="0.265625" stop-color="#E3311F"/>
<stop offset="1"/>
</linearGradient>
<linearGradient id="paint2_linear_97_2949" x1="35.6504" y1="-2.39711" x2="12.9636" y2="26.0301" gradientUnits="userSpaceOnUse">
<stop offset="0.265625" stop-color="#E3311F"/>
<stop offset="1"/>
</linearGradient>
<linearGradient id="paint3_linear_97_2949" x1="-2.98262" y1="-3.56023" x2="26.5862" y2="48.9474" gradientUnits="userSpaceOnUse">
<stop offset="0.265625" stop-color="#E3311F"/>
<stop offset="1"/>
</linearGradient>
</defs>
</svg>
