<svg width="121" height="32" viewBox="0 0 121 32" fill="none" xmlns="http://www.w3.org/2000/svg">
<path d="M8.55914 16.7251L14.594 20.275L9.40803 24.1117L4.60645 19.1729L8.55914 16.7251Z" fill="url(#paint0_linear_97_2813)"/>
<path d="M17.022 21.7005L10.9171 25.8952L17.022 32.0001L23.1138 25.4668L17.022 21.7005Z" fill="url(#paint1_linear_97_2813)"/>
<path d="M30.283 16.179L20.8273 10.6354C20.8273 10.6354 22.8495 10.1137 28.219 6.61117C33.5884 3.10868 30.9117 0 30.9117 0C30.9117 0 33.8405 1.94485 34.3659 4.31163C34.9402 6.89861 34.2479 9.07573 32.9271 10.6354C30.2786 13.7628 30.283 16.179 30.283 16.179Z" fill="url(#paint2_linear_97_2813)"/>
<path d="M29.7922 17.9911C29.7922 17.9911 22.2777 13.7292 19.4524 12.075C12.0026 7.71346 12.9268 10.0392 7.41443 6.68781C1.94543 3.36282 4.50538 0.00244141 4.50538 0.00244141C4.50538 0.00244141 1.57663 1.94729 1.05122 4.31407C0.476922 6.90105 1.16841 9.07881 2.48997 10.6378C5.22951 13.8695 8.24213 15.2369 8.24213 15.2369C8.24213 15.2369 21.1237 22.509 24.0005 24.0482L26.8964 21.0196L29.7922 17.9911Z" fill="url(#paint3_linear_97_2813)"/>
<path d="M47.5853 21.336H53.1053V24H44.2253V7.248H47.5853V21.336ZM67.313 10.704V24H63.929V22.32C63.497 22.896 62.929 23.352 62.225 23.688C61.537 24.008 60.785 24.168 59.969 24.168C58.929 24.168 58.009 23.952 57.209 23.52C56.409 23.072 55.777 22.424 55.313 21.576C54.865 20.712 54.641 19.688 54.641 18.504V10.704H58.001V18.024C58.001 19.08 58.265 19.896 58.793 20.472C59.321 21.032 60.041 21.312 60.953 21.312C61.881 21.312 62.609 21.032 63.137 20.472C63.665 19.896 63.929 19.08 63.929 18.024V10.704H67.313ZM69.2841 17.352C69.2841 15.976 69.5641 14.776 70.1241 13.752C70.6841 12.712 71.4601 11.912 72.4521 11.352C73.4441 10.776 74.5801 10.488 75.8601 10.488C77.5081 10.488 78.8681 10.904 79.9402 11.736C81.0281 12.552 81.7561 13.704 82.1241 15.192H78.5001C78.3082 14.616 77.9801 14.168 77.5161 13.848C77.0681 13.512 76.5081 13.344 75.8361 13.344C74.8761 13.344 74.1161 13.696 73.5561 14.4C72.9961 15.088 72.7161 16.072 72.7161 17.352C72.7161 18.616 72.9961 19.6 73.5561 20.304C74.1161 20.992 74.8761 21.336 75.8361 21.336C77.1962 21.336 78.0842 20.728 78.5001 19.512H82.1241C81.7561 20.952 81.0281 22.096 79.9402 22.944C78.8521 23.792 77.4921 24.216 75.8601 24.216C74.5801 24.216 73.4441 23.936 72.4521 23.376C71.4601 22.8 70.6841 22 70.1241 20.976C69.5641 19.936 69.2841 18.728 69.2841 17.352ZM85.8096 9.12C85.2176 9.12 84.7216 8.936 84.3216 8.568C83.9376 8.184 83.7456 7.712 83.7456 7.152C83.7456 6.592 83.9376 6.128 84.3216 5.76C84.7216 5.376 85.2176 5.184 85.8096 5.184C86.4016 5.184 86.8896 5.376 87.2736 5.76C87.6737 6.128 87.8737 6.592 87.8737 7.152C87.8737 7.712 87.6737 8.184 87.2736 8.568C86.8896 8.936 86.4016 9.12 85.8096 9.12ZM87.4656 10.704V24H84.1056V10.704H87.4656ZM96.4013 13.464H94.0733V24H90.6653V13.464H89.1533V10.704H90.6653V10.032C90.6653 8.4 91.1293 7.2 92.0573 6.432C92.9853 5.664 94.3853 5.304 96.2573 5.352V8.184C95.4413 8.168 94.8733 8.304 94.5533 8.592C94.2333 8.88 94.0733 9.4 94.0733 10.152V10.704H96.4013V13.464ZM110.459 17.064C110.459 17.544 110.427 17.976 110.363 18.36H100.643C100.723 19.32 101.059 20.072 101.651 20.616C102.243 21.16 102.971 21.432 103.835 21.432C105.083 21.432 105.971 20.896 106.499 19.824H110.123C109.739 21.104 109.003 22.16 107.915 22.992C106.827 23.808 105.491 24.216 103.907 24.216C102.627 24.216 101.475 23.936 100.451 23.376C99.4428 22.8 98.6508 21.992 98.0748 20.952C97.5148 19.912 97.2348 18.712 97.2348 17.352C97.2348 15.976 97.5148 14.768 98.0748 13.728C98.6348 12.688 99.4188 11.888 100.427 11.328C101.435 10.768 102.595 10.488 103.907 10.488C105.171 10.488 106.299 10.76 107.291 11.304C108.299 11.848 109.075 12.624 109.619 13.632C110.179 14.624 110.459 15.768 110.459 17.064ZM106.979 16.104C106.963 15.24 106.651 14.552 106.043 14.04C105.435 13.512 104.691 13.248 103.811 13.248C102.979 13.248 102.275 13.504 101.699 14.016C101.139 14.512 100.795 15.208 100.667 16.104H106.979ZM115.791 12.768C116.223 12.064 116.783 11.512 117.471 11.112C118.175 10.712 118.975 10.512 119.871 10.512V14.04H118.983C117.927 14.04 117.127 14.288 116.583 14.784C116.055 15.28 115.791 16.144 115.791 17.376V24H112.431V10.704H115.791V12.768Z" fill="#23262F"/>
<defs>
<linearGradient id="paint0_linear_97_2813" x1="2.47704" y1="14.4619" x2="21.1967" y2="47.9217" gradientUnits="userSpaceOnUse">
<stop offset="0.265625" stop-color="#E3311F"/>
<stop offset="1"/>
</linearGradient>
<linearGradient id="paint1_linear_97_2813" x1="2.47704" y1="14.4619" x2="21.1967" y2="47.9217" gradientUnits="userSpaceOnUse">
<stop offset="0.265625" stop-color="#E3311F"/>
<stop offset="1"/>
</linearGradient>
<linearGradient id="paint2_linear_97_2813" x1="36.1504" y1="-2.39711" x2="13.4636" y2="26.0301" gradientUnits="userSpaceOnUse">
<stop offset="0.265625" stop-color="#E3311F"/>
<stop offset="1"/>
</linearGradient>
<linearGradient id="paint3_linear_97_2813" x1="-2.48262" y1="-3.56023" x2="27.0862" y2="48.9474" gradientUnits="userSpaceOnUse">
<stop offset="0.265625" stop-color="#E3311F"/>
<stop offset="1"/>
</linearGradient>
</defs>
</svg>
